<svg width="116" height="53" viewBox="0 0 116 53" fill="none" xmlns="http://www.w3.org/2000/svg">
<path d="M58.8468 9.6687L49.856 30.6506L55.2846 30.6305L52.7089 45L62.3732 24.0231L57.2028 24.0291L58.8468 9.6687Z" fill="#BE4019"/>
<path d="M20.6355 36.4232C20.6355 38.1874 20.0186 39.6952 18.7829 40.9454C17.5481 42.1957 16.0591 42.8213 14.3177 42.8213C12.5754 42.8213 11.0863 42.1967 9.85161 40.9454C8.61787 39.6952 8 38.1884 8 36.4232V29.692H12.2188V36.4232C12.2188 37.0206 12.4214 37.5276 12.8257 37.944C13.23 38.3604 13.7277 38.5686 14.3177 38.5686C14.9078 38.5686 15.4084 38.3604 15.8197 37.944C16.2309 37.5276 16.4366 37.0206 16.4366 36.4232V30.8387C16.4366 30.1588 16.1823 29.6166 15.6757 29.2133L10.5311 25.2543C8.84336 23.9346 8 22.2257 8 20.1285V14.3972C8 12.6329 8.61787 11.1252 9.85261 9.87489C11.0874 8.62564 12.5754 8 14.3177 8C16.0601 8 17.5481 8.62564 18.7829 9.8759C20.0176 11.1262 20.6355 12.6339 20.6355 14.3982V21.1494H16.4375V14.3972C16.4375 13.7997 16.2319 13.2968 15.8207 12.8864C15.4094 12.477 14.9078 12.2718 14.3187 12.2718C13.7287 12.2718 13.231 12.477 12.8267 12.8864C12.4224 13.2968 12.2198 13.7997 12.2198 14.3972V20.1275C12.2198 20.8356 12.5009 21.4059 13.0631 21.8364L18.2077 25.7954C19.8269 27.0457 20.6365 28.7264 20.6365 30.8377V36.4232H20.6355Z" fill="#1F1F1F"/>
<path d="M41.9101 36.4232C41.9101 38.1874 41.2933 39.6952 40.0575 40.9454C38.8228 42.1957 37.3338 42.8213 35.5924 42.8213C33.8501 42.8213 32.361 42.1967 31.1263 40.9454C29.8915 39.6952 29.2737 38.1884 29.2737 36.4232V14.3972C29.2737 12.6329 29.8915 11.1252 31.1263 9.87489C32.361 8.62564 33.8501 8 35.5924 8C37.3348 8 38.8228 8.62564 40.0575 9.8759C41.2923 11.1262 41.9101 12.6339 41.9101 14.3982V16.8776H37.7122V14.3972C37.7122 13.7997 37.5066 13.2968 37.0954 12.8864C36.6841 12.477 36.1825 12.2718 35.5934 12.2718C35.0033 12.2718 34.5057 12.477 34.1014 12.8864C33.6971 13.2968 33.4944 13.7997 33.4944 14.3972V36.4232C33.4944 37.0206 33.6971 37.5276 34.1014 37.944C34.5057 38.3604 35.0033 38.5686 35.5934 38.5686C36.1835 38.5686 36.6841 38.3604 37.0954 37.944C37.5066 37.5276 37.7122 37.0206 37.7122 36.4232V33.9438H41.9101V36.4232Z" fill="#1F1F1F"/>
<path d="M73.8832 24.7433V42.4975H69.6644V8.36511H71.7634L78.102 24.9937L84.4197 8.36511H86.5187V42.4985H82.2999V24.7433L78.102 36.9542L73.8832 24.7433Z" fill="#1F1F1F"/>
<path d="M108 36.4342C108 38.1985 107.382 39.7062 106.147 40.9565C104.913 42.2068 103.424 42.8324 101.681 42.8324C99.9389 42.8324 98.4499 42.2078 97.2152 40.9565C95.9804 39.7062 95.3625 38.1995 95.3625 36.4342V14.4082C95.3625 12.644 95.9794 11.1362 97.2152 9.88598C98.4509 8.63571 99.9389 8.01007 101.681 8.01007C103.424 8.01007 104.912 8.63571 106.147 9.88598C107.382 11.1362 108 12.644 108 14.4082V16.8877H103.802V14.4082C103.802 13.8108 103.596 13.3079 103.184 12.8975C102.773 12.4881 102.271 12.2829 101.682 12.2829C101.092 12.2829 100.595 12.4881 100.19 12.8975C99.785 13.3079 99.5833 13.8108 99.5833 14.4082V36.4342C99.5833 37.0317 99.785 37.5386 100.19 37.9551C100.595 38.3715 101.092 38.5797 101.682 38.5797C102.272 38.5797 102.773 38.3715 103.184 37.9551C103.596 37.5386 103.802 37.0317 103.802 36.4342V33.9548H108V36.4342Z" fill="#1F1F1F"/>
</svg>
